<?xml version="1.0" encoding="UTF-8" standalone="no"?><svg xmlns="http://www.w3.org/2000/svg" xmlns:xlink="http://www.w3.org/1999/xlink" contentScriptType="application/ecmascript" contentStyleType="text/css" height="376px" preserveAspectRatio="none" style="width:439px;height:376px;background:#FFFFFF;" version="1.1" viewBox="0 0 439 376" width="439px" zoomAndPan="magnify"><defs><filter height="300%" id="f1eexbkm5p5tny" width="300%" x="-1" y="-1"><feGaussianBlur result="blurOut" stdDeviation="2.0"/><feColorMatrix in="blurOut" result="blurOut2" type="matrix" values="0 0 0 0 0 0 0 0 0 0 0 0 0 0 0 0 0 0 .4 0"/><feOffset dx="4.0" dy="4.0" in="blurOut2" result="blurOut3"/><feBlend in="SourceGraphic" in2="blurOut3" mode="normal"/></filter></defs><g><!--MD5=[0c6ea2900d29f0da4429173661efa551]
cluster gcs--><polygon fill="#FFFFFF" filter="url(#f1eexbkm5p5tny)" points="16,78.63,50,78.63,57,104.9019,129,104.9019,129,212.63,16,212.63,16,78.63" style="stroke:#000000;stroke-width:1.5;"/><line style="stroke:#000000;stroke-width:1.5;" x1="16" x2="57" y1="104.9019" y2="104.9019"/><text fill="#000000" font-family="sans-serif" font-size="14" font-weight="bold" lengthAdjust="spacing" textLength="28" x="20" y="96.8699">GCS</text><!--MD5=[61b2012b5932a72486539fe0b5fd04c3]
entity text--><polygon fill="#FEFECE" filter="url(#f1eexbkm5p5tny)" points="59.5,148.63,59.5,188.9019,104.5,188.9019,104.5,158.63,94.5,148.63,59.5,148.63" style="stroke:#000000;stroke-width:1.5;"/><path d="M94.5,148.63 L94.5,158.63 L104.5,158.63 " fill="#FEFECE" style="stroke:#000000;stroke-width:1.5;"/><text fill="#000000" font-family="sans-serif" font-size="14" lengthAdjust="spacing" textLength="25" x="69.5" y="174.8699">text</text><!--MD5=[8fc3522a43f8c7199df5e09e5bb0188e]
entity user--><ellipse cx="82" cy="296.13" fill="#FEFECE" filter="url(#f1eexbkm5p5tny)" rx="8" ry="8" style="stroke:#A80036;stroke-width:1.5;"/><path d="M82,304.13 L82,331.13 M69,312.13 L95,312.13 M82,331.13 L69,346.13 M82,331.13 L95,346.13 " fill="none" filter="url(#f1eexbkm5p5tny)" style="stroke:#A80036;stroke-width:1.5;"/><text fill="#000000" font-family="sans-serif" font-size="14" lengthAdjust="spacing" textLength="30" x="67" y="367.8699">User</text><!--MD5=[d540a58f417b2e912ee97295a9ce2306]
entity cf--><rect fill="#FEFECE" filter="url(#f1eexbkm5p5tny)" height="26.2719" style="stroke:#000000;stroke-width:1.5;" width="128" x="202" y="155.63"/><text fill="#000000" font-family="sans-serif" font-size="14" lengthAdjust="spacing" textLength="108" x="212" y="174.8699">Cloud Functions</text><!--MD5=[2c9f7c471dee97ad2759462864a8c4a6]
entity bq--><path d="M393.5,154.13 C393.5,144.13 413,144.13 413,144.13 C413,144.13 432.5,144.13 432.5,154.13 L432.5,183.4019 C432.5,193.4019 413,193.4019 413,193.4019 C413,193.4019 393.5,193.4019 393.5,183.4019 L393.5,154.13 " fill="#FEFECE" filter="url(#f1eexbkm5p5tny)" style="stroke:#000000;stroke-width:1.5;"/><path d="M393.5,154.13 C393.5,164.13 413,164.13 413,164.13 C413,164.13 432.5,164.13 432.5,154.13 " fill="none" style="stroke:#000000;stroke-width:1.5;"/><text fill="#000000" font-family="sans-serif" font-size="14" lengthAdjust="spacing" textLength="19" x="403.5" y="184.3699">BQ</text><!--MD5=[515be766a249ca9208d852b3bbf92a9b]
reverse link text to user--><path d="M82,193.77 C82,218.32 82,256.84 82,286.36 " fill="none" id="text-backto-user" style="stroke:#A80036;stroke-width:1.0;"/><polygon fill="#A80036" points="82,188.75,78,197.75,82,193.75,86,197.75,82,188.75" style="stroke:#A80036;stroke-width:1.0;"/><text fill="#000000" font-family="sans-serif" font-size="13" lengthAdjust="spacing" textLength="21" x="83" y="252.71">put</text><!--MD5=[40046eac4d855ffe4ff8e3a29ef446b9]
link gcs to cf--><path d="M30.2299,78.4602 C30.3134,78.3071 30.3975,78.1543 30.4823,78.0019 C30.6517,77.6972 30.8236,77.394 30.998,77.0924 C31.3467,76.4891 31.7054,75.8922 32.0743,75.302 C35.025,70.5803 38.6263,66.2888 43,62.63 C110.68,6 213.71,108.99 251.48,151.51 " fill="none" id="gcs-to-cf" style="stroke:#A80036;stroke-width:1.0;"/><polygon fill="#A80036" points="254.92,155.43,251.9683,146.0339,251.6133,151.6796,245.9676,151.3246,254.92,155.43" style="stroke:#A80036;stroke-width:1.0;"/><text fill="#000000" font-family="sans-serif" font-size="13" lengthAdjust="spacing" textLength="77" x="74.5" y="50.71">event trigger</text><!--MD5=[9c4388d660bc24e6f150c82a50d7fb86]
link text to cf--><path d="M104.56,168.63 C127.43,168.63 163.97,168.63 196.51,168.63 " fill="none" id="text-to-cf" style="stroke:#A80036;stroke-width:1.0;"/><polygon fill="#A80036" points="201.69,168.63,192.69,164.63,196.69,168.63,192.69,172.63,201.69,168.63" style="stroke:#A80036;stroke-width:1.0;"/><text fill="#000000" font-family="sans-serif" font-size="13" lengthAdjust="spacing" textLength="61" x="122.75" y="161.71">download</text><!--MD5=[5d1e174e7ea184cd5100e935b45ccb48]
link cf to bq--><path d="M330.05,168.63 C350.62,168.63 372.2,168.63 388.2,168.63 " fill="none" id="cf-to-bq" style="stroke:#A80036;stroke-width:1.0;"/><polygon fill="#A80036" points="393.39,168.63,384.39,164.63,388.39,168.63,384.39,172.63,393.39,168.63" style="stroke:#A80036;stroke-width:1.0;"/><text fill="#000000" font-family="sans-serif" font-size="13" lengthAdjust="spacing" textLength="27" x="348.25" y="161.71">load</text><!--MD5=[938c5d641df511595fb47f28338f7c2e]
@startuml
actor User as user
package "GCS" as gcs {
    file text
}

card "Cloud Functions" as cf
database BQ as bq


user -up-> text : put
gcs -> cf : event trigger
text -> cf : download
cf -> bq : load
@enduml

PlantUML version 1.2022.0(Wed Jan 12 01:16:42 JST 2022)
(GPL source distribution)
Java Runtime: OpenJDK Runtime Environment
JVM: OpenJDK 64-Bit Server VM
Default Encoding: UTF-8
Language: ja
Country: JP
--></g></svg>