<?xml version="1.0" encoding="UTF-8" standalone="no"?><svg xmlns="http://www.w3.org/2000/svg" xmlns:xlink="http://www.w3.org/1999/xlink" contentScriptType="application/ecmascript" contentStyleType="text/css" height="259px" preserveAspectRatio="none" style="width:385px;height:259px;background:#FFFFFF;" version="1.1" viewBox="0 0 385 259" width="385px" zoomAndPan="magnify"><defs><filter height="300%" id="fhzavr3e9rum4" width="300%" x="-1" y="-1"><feGaussianBlur result="blurOut" stdDeviation="2.0"/><feColorMatrix in="blurOut" result="blurOut2" type="matrix" values="0 0 0 0 0 0 0 0 0 0 0 0 0 0 0 0 0 0 .4 0"/><feOffset dx="4.0" dy="4.0" in="blurOut2" result="blurOut3"/><feBlend in="SourceGraphic" in2="blurOut3" mode="normal"/></filter></defs><g><!--MD5=[0c6ea2900d29f0da4429173661efa551]
cluster gcs--><polygon fill="#FFFFFF" filter="url(#fhzavr3e9rum4)" points="16,6.532,50,6.532,57,32.8039,94,32.8039,94,101.532,16,101.532,16,6.532" style="stroke:#000000;stroke-width:1.5;"/><line style="stroke:#000000;stroke-width:1.5;" x1="16" x2="57" y1="32.8039" y2="32.8039"/><text fill="#000000" font-family="sans-serif" font-size="14" font-weight="bold" lengthAdjust="spacing" textLength="28" x="20" y="24.7719">GCS</text><!--MD5=[61b2012b5932a72486539fe0b5fd04c3]
entity text--><polygon fill="#FEFECE" filter="url(#fhzavr3e9rum4)" points="32.5,45.532,32.5,85.8039,77.5,85.8039,77.5,55.532,67.5,45.532,32.5,45.532" style="stroke:#000000;stroke-width:1.5;"/><path d="M67.5,45.532 L67.5,55.532 L77.5,55.532 " fill="#FEFECE" style="stroke:#000000;stroke-width:1.5;"/><text fill="#000000" font-family="sans-serif" font-size="14" lengthAdjust="spacing" textLength="25" x="42.5" y="71.7719">text</text><!--MD5=[8fc3522a43f8c7199df5e09e5bb0188e]
entity user--><ellipse cx="55" cy="179.532" fill="#FEFECE" filter="url(#fhzavr3e9rum4)" rx="8" ry="8" style="stroke:#A80036;stroke-width:1.5;"/><path d="M55,187.532 L55,214.532 M42,195.532 L68,195.532 M55,214.532 L42,229.532 M55,214.532 L68,229.532 " fill="none" filter="url(#fhzavr3e9rum4)" style="stroke:#A80036;stroke-width:1.5;"/><text fill="#000000" font-family="sans-serif" font-size="14" lengthAdjust="spacing" textLength="30" x="40" y="251.2719">User</text><!--MD5=[d540a58f417b2e912ee97295a9ce2306]
entity cf--><rect fill="#FEFECE" filter="url(#fhzavr3e9rum4)" height="26.2719" style="stroke:#000000;stroke-width:1.5;" width="128" x="148" y="52.532"/><text fill="#000000" font-family="sans-serif" font-size="14" lengthAdjust="spacing" textLength="108" x="158" y="71.7719">Cloud Functions</text><!--MD5=[2c9f7c471dee97ad2759462864a8c4a6]
entity bq--><path d="M339.5,51.032 C339.5,41.032 359,41.032 359,41.032 C359,41.032 378.5,41.032 378.5,51.032 L378.5,80.3039 C378.5,90.3039 359,90.3039 359,90.3039 C359,90.3039 339.5,90.3039 339.5,80.3039 L339.5,51.032 " fill="#FEFECE" filter="url(#fhzavr3e9rum4)" style="stroke:#000000;stroke-width:1.5;"/><path d="M339.5,51.032 C339.5,61.032 359,61.032 359,61.032 C359,61.032 378.5,61.032 378.5,51.032 " fill="none" style="stroke:#000000;stroke-width:1.5;"/><text fill="#000000" font-family="sans-serif" font-size="14" lengthAdjust="spacing" textLength="19" x="349.5" y="81.2719">BQ</text><!--MD5=[515be766a249ca9208d852b3bbf92a9b]
reverse link text to user--><path d="M55,91.032 C55,112.562 55,144.342 55,169.862 " fill="none" id="text-backto-user" style="stroke:#A80036;stroke-width:1.0;"/><polygon fill="#A80036" points="55,85.782,51,94.782,55,90.782,59,94.782,55,85.782" style="stroke:#A80036;stroke-width:1.0;"/><text fill="#000000" font-family="sans-serif" font-size="13" lengthAdjust="spacing" textLength="21" x="56" y="136.112">put</text><!--MD5=[9c4388d660bc24e6f150c82a50d7fb86]
link text to cf--><path d="M77.83,65.532 C94.91,65.532 119.23,65.532 142.48,65.532 " fill="none" id="text-to-cf" style="stroke:#A80036;stroke-width:1.0;"/><polygon fill="#A80036" points="147.74,65.532,138.74,61.532,142.74,65.532,138.74,69.532,147.74,65.532" style="stroke:#A80036;stroke-width:1.0;"/><text fill="#000000" font-family="sans-serif" font-size="13" lengthAdjust="spacing" textLength="34" x="95.75" y="58.612">event</text><!--MD5=[5d1e174e7ea184cd5100e935b45ccb48]
link cf to bq--><path d="M276.05,65.532 C296.62,65.532 318.2,65.532 334.2,65.532 " fill="none" id="cf-to-bq" style="stroke:#A80036;stroke-width:1.0;"/><polygon fill="#A80036" points="339.39,65.532,330.39,61.532,334.39,65.532,330.39,69.532,339.39,65.532" style="stroke:#A80036;stroke-width:1.0;"/><text fill="#000000" font-family="sans-serif" font-size="13" lengthAdjust="spacing" textLength="27" x="294.25" y="58.612">load</text><!--MD5=[27ba819ab963ec46638a459f29c224e6]
@startuml
actor User as user
package "GCS" as gcs {
    file text
}

card "Cloud Functions" as cf
database BQ as bq


user -up-> text : put
text -> cf : event
cf -> bq : load
@enduml

PlantUML version 1.2022.0(Wed Jan 12 01:16:42 JST 2022)
(GPL source distribution)
Java Runtime: OpenJDK Runtime Environment
JVM: OpenJDK 64-Bit Server VM
Default Encoding: UTF-8
Language: ja
Country: JP
--></g></svg>